<svg id="Layer_1" data-name="Layer 1" xmlns="http://www.w3.org/2000/svg" viewBox="0 0 198 198"><defs><style>.cls-1{fill:#223681;}</style></defs><path class="cls-1" d="M148.71,23.88c-2-1-4.06-1.95-6.11-2.86a72.46,72.46,0,0,0-14.76-4.91c-2.4-.5-4.82-1-7.24-1.38-1.5-.24-3-.34-4.56-.44-1.92-.13-3.85-.23-5.77-.28-2.12,0-4.24-.11-6.34,0-2.46.16-4.9.58-7.36.77A60.75,60.75,0,0,0,82,18.2,74,74,0,0,0,67.5,24.86c-3.33,2-6.53,4.17-9.71,6.37A66.23,66.23,0,0,0,46.12,41.94a78.46,78.46,0,0,0-9.26,12.72c-1.8,3.11-3.31,6.38-5,9.56a63.14,63.14,0,0,0-5,14.74c-.6,2.48-.95,5-1.33,7.54Q25.16,89.25,25,92c-.15,3-.32,6.09-.25,9.14a62.37,62.37,0,0,0,.68,7.6c.45,3.12,1,6.21,1.69,9.29.38,1.8,1,3.53,1.51,5.31A67.18,67.18,0,0,0,34.27,137a72.88,72.88,0,0,0,9.43,14.14c2.35,2.72,4.79,5.37,7.34,7.89a78.4,78.4,0,0,0,23,15.52A111.38,111.38,0,0,0,86.13,179a70.08,70.08,0,0,0,9.33,2.17,49.83,49.83,0,0,0,6.33.71c3.68.18,7.37.31,11,.27,2.2,0,4.4-.43,6.61-.66A70.22,70.22,0,0,0,131.63,179c2.65-.76,5.24-1.73,7.87-2.58a50.46,50.46,0,0,0,9.62-4.42c2.45-1.4,4.83-2.92,7.21-4.44a1.93,1.93,0,0,1,2.64.11,22.84,22.84,0,0,0,2.18,1.36l.81.46a86,86,0,0,1-51,20.79c-24.52,1.74-46.42-5.36-64.89-21.58C6.49,133.92,7.26,78.87,35,45.12a91,91,0,0,1,39.17-28A84.76,84.76,0,0,1,105.79,12C121.08,12.32,135.49,16,148.71,23.88Z"/><path class="cls-1" d="M139.32,43.16c-2-.93-4-1.88-6-2.78a53.82,53.82,0,0,0-11.69-3.61c-1.38-.26-2.8-.31-4.17-.6a34.08,34.08,0,0,0-7.74-.53,69.08,69.08,0,0,0-9.19.8,57,57,0,0,0-17.36,5.65,70.13,70.13,0,0,0-9.86,6.35,53.18,53.18,0,0,0-6.74,6A58.68,58.68,0,0,0,57,67.61a59.43,59.43,0,0,0-5.51,15,66.19,66.19,0,0,0-1.15,7.29,73.66,73.66,0,0,0-.41,7.43c0,1.94.35,3.88.34,5.82a31,31,0,0,0,1,6.78,53.27,53.27,0,0,0,3.46,10.27,63.16,63.16,0,0,0,7.1,12.08,70.34,70.34,0,0,0,7.15,8.1,53,53,0,0,0,9.93,7.6,55.39,55.39,0,0,0,14,6,84.39,84.39,0,0,0,8.61,1.95c2.32.39,4.7.42,7,.61a10.42,10.42,0,0,0,1.46.13c2.63-.17,5.26-.37,7.9-.55a50.59,50.59,0,0,0,12.33-2.68,13.09,13.09,0,0,0,1.62-.6,2.62,2.62,0,0,1,2.63.32l4.6,2.8c-.85.5-1.65,1-2.5,1.47a49.74,49.74,0,0,1-9.39,4.07q-4.92,1.41-10,2.39a61.43,61.43,0,0,1-7.43.85,59.42,59.42,0,0,1-7.06.13c-2.42-.12-4.83-.47-7.23-.8A60.27,60.27,0,0,1,80,159.67a62.83,62.83,0,0,1-13.71-8,70,70,0,0,1-9.69-9.24,64.14,64.14,0,0,1-10.67-16.73,57.63,57.63,0,0,1-4-12.56c-.43-2.36-.75-4.75-1-7.13-.24-2.61-.43-5.24-.41-7.86,0-2.36.3-4.71.53-7.06A56.28,56.28,0,0,1,44,77.94a64.89,64.89,0,0,1,19-28.2,58.21,58.21,0,0,1,5.51-4.26A66,66,0,0,1,88,36.33c2.71-.74,5.48-1.23,8.24-1.76a62.88,62.88,0,0,1,13.43-.68,31.6,31.6,0,0,1,5.57.57,85.83,85.83,0,0,1,12.63,3.18A54,54,0,0,1,139.32,43.16Z"/></svg>