<?xml version="1.0" standalone="no"?>
<!DOCTYPE svg PUBLIC "-//W3C//DTD SVG 20010904//EN"
 "http://www.w3.org/TR/2001/REC-SVG-20010904/DTD/svg10.dtd">
<svg version="1.0" xmlns="http://www.w3.org/2000/svg"
 width="579.000000pt" height="558.000000pt" viewBox="0 0 579.000000 558.000000"
 preserveAspectRatio="xMidYMid meet">

<g transform="translate(0.000000,558.000000) scale(0.100000,-0.100000)"
fill="#000000" stroke="none">
<path d="M2183 4830 c-446 -56 -850 -248 -1176 -560 -752 -719 -847 -1889
-220 -2721 204 -271 449 -472 758 -624 315 -155 569 -214 915 -215 197 0 295
10 457 46 284 63 534 175 757 340 78 58 86 67 84 94 -2 24 -11 36 -44 55 -24
14 -49 25 -58 25 -8 0 -46 -20 -83 -44 -285 -183 -606 -284 -963 -302 -294
-15 -643 59 -925 196 -291 141 -554 367 -727 625 -132 197 -255 491 -298 711
-147 764 184 1558 830 1989 256 171 638 310 915 332 39 3 76 10 82 15 8 6 47
7 95 4 46 -4 115 -9 153 -12 120 -10 264 -42 419 -94 82 -27 151 -48 153 -46
7 7 -173 78 -282 111 -185 56 -332 77 -565 80 -113 2 -237 0 -277 -5z"/>
<path d="M2290 4329 c-366 -41 -723 -228 -959 -500 -170 -197 -277 -405 -338
-659 -30 -128 -43 -403 -24 -544 67 -502 388 -945 846 -1166 386 -186 780
-214 1175 -84 142 47 222 91 231 126 7 26 3 30 -52 64 -69 41 -76 41 -214 0
-269 -80 -566 -72 -847 23 -448 152 -775 527 -880 1011 -27 123 -29 359 -5
502 55 321 231 633 469 830 198 165 401 266 636 319 56 12 102 26 102 31 0 14
282 9 376 -7 49 -9 134 -31 189 -49 55 -19 101 -33 103 -31 2 2 -43 21 -100
43 -222 86 -470 118 -708 91z"/>
<path d="M1644 3203 c-5 -10 -10 -198 -12 -419 -3 -344 -1 -402 12 -413 10 -8
33 -10 75 -5 l61 7 0 188 0 189 163 0 c113 0 167 -4 175 -12 8 -8 12 -64 12
-184 0 -202 -1 -201 87 -188 l58 9 3 418 2 418 -67 -3 c-66 -3 -68 -4 -74 -33
-4 -16 -7 -85 -8 -152 l-1 -123 -175 0 -175 0 0 160 0 160 -64 0 c-51 0 -66
-4 -72 -17z"/>
<path d="M2903 3208 c-4 -7 -10 -151 -13 -320 -5 -292 -6 -308 -26 -335 -62
-83 -199 -91 -267 -15 -41 46 -46 84 -47 385 l0 287 -64 0 -63 0 -13 -45 c-16
-57 -8 -568 10 -632 25 -87 117 -162 225 -183 49 -10 72 -9 128 4 124 29 189
77 236 176 26 55 26 55 29 349 2 162 1 305 -3 318 -5 21 -11 23 -65 23 -36 0
-62 -5 -67 -12z"/>
<path d="M3174 3203 c-5 -10 -10 -197 -12 -416 -2 -310 0 -402 10 -414 20 -25
285 -14 358 15 63 25 122 79 145 134 38 91 4 226 -70 283 l-35 26 20 39 c59
116 22 258 -82 311 -41 21 -163 38 -269 39 -44 0 -59 -4 -65 -17z m207 -133
c19 -6 46 -21 58 -34 19 -20 22 -33 19 -82 -3 -67 -14 -76 -100 -88 l-48 -7 0
110 c0 123 -2 121 71 101z m54 -351 c57 -16 105 -68 105 -114 0 -20 -4 -44
-10 -54 -15 -29 -84 -51 -155 -51 l-65 0 0 108 c0 60 3 112 7 115 10 11 73 8
118 -4z"/>
<path d="M3826 3168 c-3 -29 -6 -220 -6 -424 0 -314 2 -373 15 -384 11 -9 45
-9 147 -1 156 12 233 32 281 72 108 89 108 279 0 368 l-36 30 21 50 c28 65 29
157 3 209 -49 95 -144 131 -342 132 l-76 0 -7 -52z m246 -114 c35 -18 49 -45
50 -96 0 -26 -6 -46 -18 -59 -19 -19 -119 -44 -135 -33 -5 3 -9 52 -9 110 l0
104 43 -6 c23 -4 54 -13 69 -20z m22 -335 c82 -23 130 -112 89 -167 -26 -36
-83 -54 -158 -50 l-60 3 -3 80 c-2 44 0 95 3 113 6 30 8 32 48 32 23 0 60 -5
81 -11z"/>
<path d="M4483 3208 c-14 -22 -16 -817 -2 -834 9 -11 41 -14 143 -13 72 0 149
3 171 7 l40 7 3 63 3 62 -116 0 -115 0 0 360 0 360 -59 0 c-37 0 -63 -5 -68
-12z"/>
<path d="M4973 3198 c-14 -22 -16 -807 -2 -824 9 -11 48 -14 193 -13 99 0 199
3 221 7 l40 7 3 63 3 62 -161 0 -160 0 0 125 0 125 110 0 c60 0 130 5 155 12
l46 12 -3 61 -3 60 -152 3 -153 3 0 88 0 89 143 4 c78 3 150 8 160 12 13 6 17
20 17 62 l0 54 -224 0 c-169 0 -227 -3 -233 -12z"/>
</g>
</svg>
