<svg id="Layer_1" data-name="Layer 1" xmlns="http://www.w3.org/2000/svg" viewBox="0 0 198 198"><defs><style>.cls-1{fill:#223681;}</style></defs><path class="cls-1" d="M80.45,15.06c-2.17.62-4.34,1.19-6.49,1.85a73,73,0,0,0-14.36,6c-2.15,1.21-4.28,2.42-6.37,3.72-1.3.8-2.51,1.73-3.73,2.65C48,30.41,46.44,31.59,45,32.82S41.68,35.51,40.18,37c-1.76,1.73-3.32,3.65-5,5.41a60.82,60.82,0,0,0-8.78,12.12,74.2,74.2,0,0,0-6.58,14.53c-1.21,3.68-2.19,7.43-3.15,11.18A67.12,67.12,0,0,0,14.83,96a78.41,78.41,0,0,0,1.35,15.68c.68,3.53,1.69,7,2.52,10.48a63.43,63.43,0,0,0,5.88,14.41c1.17,2.26,2.57,4.41,4,6.56,1,1.55,2,3.08,3.19,4.53,1.88,2.4,3.76,4.82,5.8,7.07A62.41,62.41,0,0,0,43,160c2.39,2.06,4.86,4,7.37,5.91,1.47,1.11,3.1,2,4.63,3a67.49,67.49,0,0,0,13.21,6.63A72.39,72.39,0,0,0,84.62,180c3.56.52,7.14.93,10.72,1.15a78.36,78.36,0,0,0,27.55-3.37,111.45,111.45,0,0,0,12-4.61,69.9,69.9,0,0,0,8.47-4.49,49.26,49.26,0,0,0,5.25-3.6c2.89-2.28,5.76-4.6,8.51-7,1.65-1.47,3-3.22,4.56-4.84a70.13,70.13,0,0,0,7.61-9.81c1.51-2.31,2.82-4.75,4.25-7.11a51.29,51.29,0,0,0,4.37-9.64c.93-2.67,1.73-5.38,2.53-8.09a1.92,1.92,0,0,1,2.06-1.64,24.38,24.38,0,0,0,2.54-.4l.92-.19a86.15,86.15,0,0,1-24.85,49.12C143.73,182.85,122.54,191.84,98,191.7c-52.75-.3-88.25-42.37-89.41-86.06a90.88,90.88,0,0,1,11.24-46.8A84.76,84.76,0,0,1,40.26,34.23C52,24.45,65.29,17.77,80.45,15.06Z"/></svg>