<svg id="Layer_1" data-name="Layer 1" xmlns="http://www.w3.org/2000/svg" viewBox="0 0 198 198"><defs><style>.cls-1{fill:#223681;}</style></defs><path class="cls-1" d="M104.22,168.73c2.17-.41,4.34-.79,6.51-1.23a52.67,52.67,0,0,0,11.6-3.85c1.28-.58,2.47-1.37,3.75-1.93a34.4,34.4,0,0,0,6.61-4.06,70.12,70.12,0,0,0,7-6A57,57,0,0,0,150.55,137a69.23,69.23,0,0,0,4.34-10.89,54.21,54.21,0,0,0,2-8.78,58.31,58.31,0,0,0,.15-16.32,59,59,0,0,0-4.25-15.44,66.74,66.74,0,0,0-3.3-6.61c-1.21-2.15-2.55-4.26-4-6.29-1.12-1.58-2.55-3-3.67-4.53a30.49,30.49,0,0,0-4.78-4.92,53.3,53.3,0,0,0-8.77-6.36,63.45,63.45,0,0,0-12.8-5.7A69.94,69.94,0,0,0,105,48.7a52.32,52.32,0,0,0-12.5-.42A55.21,55.21,0,0,0,77.63,51.5a83.89,83.89,0,0,0-8.14,3.42c-2.11,1-4.07,2.39-6.09,3.6a10.36,10.36,0,0,0-1.26.73c-2,1.67-4.07,3.37-6.11,5a49.86,49.86,0,0,0-8.48,9.35,12.9,12.9,0,0,0-1,1.43,2.61,2.61,0,0,1-2.32,1.26l-5.37.4c.4-.91.74-1.8,1.17-2.65a50.92,50.92,0,0,1,5.28-8.77q3.2-4,6.72-7.72a59.89,59.89,0,0,1,5.55-5,59.55,59.55,0,0,1,5.68-4.21c2-1.31,4.2-2.42,6.34-3.54a60.09,60.09,0,0,1,15.21-5.4A63.3,63.3,0,0,1,100.66,38a69.94,69.94,0,0,1,13.26,1.89,63.92,63.92,0,0,1,18.39,7.42,56.59,56.59,0,0,1,10.56,7.9c1.73,1.66,3.38,3.42,4.94,5.24,1.71,2,3.39,4,4.9,6.16,1.35,1.92,2.49,4,3.67,6a56.23,56.23,0,0,1,5.22,12.39,65,65,0,0,1,.89,34,57.55,57.55,0,0,1-2,6.67A66,66,0,0,1,150,144.48c-1.78,2.17-3.75,4.18-5.69,6.22a63.37,63.37,0,0,1-10.53,8.35,33.07,33.07,0,0,1-4.87,2.78,85.16,85.16,0,0,1-12.13,4.74A53.93,53.93,0,0,1,104.22,168.73Z"/></svg>